<svg xmlns="http://www.w3.org/2000/svg" width="67" height="60.942" viewBox="0 0 67 60.942">
  <g id="Group_8035" data-name="Group 8035" transform="translate(-1839 -30.058)">
    <g id="renewable-energy_1_" data-name="renewable-energy (1)" transform="translate(1850 30.058)">
      <g id="Group_4" data-name="Group 4" transform="translate(12.7 7.654)">
        <g id="Group_3" data-name="Group 3">
          <path id="Path_3" data-name="Path 3" d="M168.628,104.587a1.26,1.26,0,0,0-.829-.907l-6.19-2.064,4.4-8.792a1.262,1.262,0,0,0-2.021-1.456l-12.616,12.616a1.261,1.261,0,0,0,.493,2.088l6.19,2.064-4.4,8.792a1.262,1.262,0,0,0,2.021,1.456l12.616-12.616A1.263,1.263,0,0,0,168.628,104.587Z" transform="translate(-150.998 -90.999)" fill="#f5f501"/>
        </g>
      </g>
      <g id="Group_6" data-name="Group 6" transform="translate(2.523)">
        <g id="Group_5" data-name="Group 5">
          <path id="Path_4" data-name="Path 4" d="M49.008,0A21.686,21.686,0,0,0,32.523,7.782V6.392a1.262,1.262,0,1,0-2.523,0v5.359c0,1.2,1.555,1.376,1.262,1.262l.078,0,5.046-.313a1.262,1.262,0,0,0-.155-2.518l-2.556.159A18.989,18.989,0,0,1,68.016,21.531a1.262,1.262,0,1,0,2.523,0A21.615,21.615,0,0,0,49.008,0Z" transform="translate(-30)" fill="#000030"/>
        </g>
      </g>
      <g id="Group_8" data-name="Group 8" transform="translate(0 20.27)">
        <g id="Group_7" data-name="Group 7">
          <path id="Path_5" data-name="Path 5" d="M39.2,250.782l-5.046.313a1.261,1.261,0,0,0-1.182,1.337,1.276,1.276,0,0,0,1.337,1.182l2.556-.159A18.989,18.989,0,0,1,2.523,242.262a1.262,1.262,0,1,0-2.523,0,21.615,21.615,0,0,0,21.531,21.531,21.686,21.686,0,0,0,16.485-7.782v1.39a1.262,1.262,0,0,0,2.523,0v-5.359A1.319,1.319,0,0,0,39.2,250.782Z" transform="translate(0 -241)" fill="#000030"/>
        </g>
      </g>
    </g>
    <text id="Power_Inc." data-name="Power Inc." transform="translate(1839 88)" fill="#000030" font-size="12" font-family="Montserrat-SemiBold, Montserrat" font-weight="600" letter-spacing="0.01em"><tspan x="0" y="0">Power Inc.</tspan></text>
  </g>
</svg>
