<svg xmlns="http://www.w3.org/2000/svg" width="67" height="69.734" viewBox="0 0 67 69.734">
  <g id="Group_8034" data-name="Group 8034" transform="translate(-15360 8068.734)">
    <g id="Group_3" data-name="Group 3" transform="translate(15333.943 -8114.52)">
      <path id="Subtraction_1" data-name="Subtraction 1" d="M.38,52.09h0L.137,20.81V20.8a18.671,18.671,0,0,1,.241-5.994,18.422,18.422,0,0,1,2.8-6.631,18.66,18.66,0,0,1,8.191-6.719A18.512,18.512,0,0,1,14.864.377a18.855,18.855,0,0,1,7.5,0,18.538,18.538,0,0,1,6.657,2.79,18.683,18.683,0,0,1,5.028,5.009,18.49,18.49,0,0,1-2.273,23.482A18.7,18.7,0,0,1,13.919,36.5c-.386-.1-.77-.185-1.141-.268a16.388,16.388,0,0,1-2.08-.558,1.185,1.185,0,0,0,.585-.32l11.941-11.9a1.186,1.186,0,0,0-.466-1.968L16.9,19.538l4.161-8.29a1.193,1.193,0,0,0-1.913-1.373L7.206,21.77a1.187,1.187,0,0,0,.466,1.969l5.859,1.946-4.161,8.29a1.19,1.19,0,0,0-.1.267l-.024.053Z" transform="translate(39.94 45.786)" fill="#f5f501"/>
    </g>
    <text id="Power_Inc." data-name="Power Inc." transform="translate(15360 -8002)" fill="#000030" font-size="12" font-family="Montserrat-SemiBold, Montserrat" font-weight="600" letter-spacing="0.01em"><tspan x="0" y="0">Power Inc.</tspan></text>
  </g>
</svg>
